HIERARCHY
ROOT Hips
{
	OFFSET -0.001795 -0.223333 0.028219
	CHANNELS 6 Xposition Yposition Zposition Zrotation Yrotation Xrotation
	JOINT LeftUpLeg
	{
		OFFSET 0.069520 -0.091406 -0.006815
		CHANNELS 3 Zrotation Yrotation Xrotation
		JOINT LeftLeg
		{
			OFFSET 0.034277 -0.375199 -0.004496
			CHANNELS 3 Zrotation Yrotation Xrotation
			JOINT LeftFoot
			{
				OFFSET -0.013596 -0.397961 -0.043693
				CHANNELS 3 Zrotation Yrotation Xrotation
				JOINT LeftToe
				{
					OFFSET 0.026358 -0.055791 0.119288
					CHANNELS 3 Zrotation Yrotation Xrotation
					End Site
					{
						OFFSET 0.000000 0.000000 0.000000
					}
				}
			}
		}
	}
	JOINT RightUpLeg
	{
		OFFSET -0.067670 -0.090522 -0.004320
		CHANNELS 3 Zrotation Yrotation Xrotation
		JOINT RightLeg
		{
			OFFSET -0.038290 -0.382569 -0.008850
			CHANNELS 3 Zrotation Yrotation Xrotation
			JOINT RightFoot
			{
				OFFSET 0.015774 -0.398415 -0.042312
				CHANNELS 3 Zrotation Yrotation Xrotation
				JOINT RightToe
				{
					OFFSET -0.025372 -0.048144 0.123348
					CHANNELS 3 Zrotation Yrotation Xrotation
					End Site
					{
						OFFSET 0.000000 0.000000 0.000000
					}
				}
			}
		}
	}
	JOINT Spine
	{
		OFFSET -0.002533 0.108963 -0.026696
		CHANNELS 3 Zrotation Yrotation Xrotation
		JOINT Spine1
		{
			OFFSET 0.005487 0.135180 0.001092
			CHANNELS 3 Zrotation Yrotation Xrotation
			JOINT Spine2
			{
				OFFSET 0.001457 0.052922 0.025425
				CHANNELS 3 Zrotation Yrotation Xrotation
				JOINT Neck
				{
					OFFSET -0.002778 0.213870 -0.042857
					CHANNELS 3 Zrotation Yrotation Xrotation
					JOINT Head
					{
						OFFSET 0.005152 0.064970 0.051349
						CHANNELS 3 Zrotation Yrotation Xrotation
						End Site
						{
							OFFSET 0.000000 0.000000 0.000000
						}
					}
				}
				JOINT LeftShoulder
				{
					OFFSET 0.078845 0.121749 -0.034090
					CHANNELS 3 Zrotation Yrotation Xrotation
					JOINT LeftArm
					{
						OFFSET 0.090977 0.030469 -0.008868
						CHANNELS 3 Zrotation Yrotation Xrotation
						JOINT LeftForeArm
						{
							OFFSET 0.259612 -0.012772 -0.027456
							CHANNELS 3 Zrotation Yrotation Xrotation
							JOINT LeftHand
							{
								OFFSET 0.249234 0.008986 -0.001171
								CHANNELS 3 Zrotation Yrotation Xrotation
								End Site
								{
									OFFSET 0.000000 0.000000 0.000000
								}
							}
						}
					}
				}
				JOINT RightShoulder
				{
					OFFSET -0.081759 0.118833 -0.038615
					CHANNELS 3 Zrotation Yrotation Xrotation
					JOINT RightArm
					{
						OFFSET -0.096012 0.032551 -0.009143
						CHANNELS 3 Zrotation Yrotation Xrotation
						JOINT RightForeArm
						{
							OFFSET -0.253742 -0.013329 -0.021401
							CHANNELS 3 Zrotation Yrotation Xrotation
							JOINT RightHand
							{
								OFFSET -0.255298 0.007772 -0.005559
								CHANNELS 3 Zrotation Yrotation Xrotation
								End Site
								{
									OFFSET 0.000000 0.000000 0.000000
								}
							}
						}
					}
				}
			}
		}
	}
}
MOTION
Frames: 15
Frame Time: 0.050000
0.000000 0.931927 0.000000 -1.054789 14.836802 -3.994528 0.568972 0.626645 12.694451 -0.955144 0.169806 -4.274663 0.239134 2.034534 2.564346 0.000000 0.000000 0.000000 0.971416 -0.407626 3.315481 1.774333 -0.221978 6.389151 -3.568275 -9.592536 3.023571 0.000000 0.000000 0.000000 -4.877031 -0.095140 7.974450 7.952809 -1.301708 -20.832039 -4.592918 -3.834334 25.797715 4.013942 0.214269 -27.159546 0.000000 0.000000 0.000000 -52.354935 3.594524 -13.313780 -31.576458 5.970249 -5.265333 2.305861 -19.743900 0.404599 0.000000 0.000000 0.000000 47.824014 -0.302455 -0.141085 36.485981 0.502638 -6.184441 -3.842529 20.655574 0.365702 0.000000 0.000000 0.000000
0.003412 0.932955 -0.006515 -0.310904 14.121562 -3.003827 -0.231562 0.733724 11.782750 -1.756654 0.211630 -4.798527 0.233989 2.454778 3.356101 0.000000 0.000000 0.000000 -0.420645 -0.200969 1.746312 2.144138 -0.287653 6.855387 -3.317408 -8.968630 3.201272 0.000000 0.000000 0.000000 -6.551324 0.003103 7.079340 8.992209 -1.585909 -21.277481 -5.933633 -2.826819 27.398432 6.219157 -0.548517 -31.063997 0.000000 0.000000 0.000000 -51.538479 5.587442 -15.221272 -32.306612 5.859420 -5.414453 1.807644 -20.009961 0.500230 0.000000 0.000000 0.000000 49.842372 -2.059917 -1.603546 35.081621 2.180516 -5.783266 -3.443354 20.534838 0.451645 0.000000 0.000000 0.000000
0.006251 0.932523 -0.012719 -0.152525 13.979308 -2.378582 -0.200546 0.668061 10.303476 -2.712877 0.245172 -3.913939 0.362330 2.500194 3.011978 0.000000 0.000000 0.000000 0.305013 0.079946 -0.781678 0.133043 0.128875 9.602007 -3.568210 -9.517030 3.006442 0.000000 0.000000 0.000000 -6.219586 0.002730 6.679429 7.746915 -1.304952 -20.181836 -5.664747 -3.949521 27.985719 4.981462 -0.389332 -28.543035 0.000000 0.000000 0.000000 -51.621972 5.498658 -14.310372 -33.229732 4.906144 -5.585948 3.692832 -19.379590 0.208189 0.000000 0.000000 0.000000 48.602393 -0.329889 -0.687841 37.664977 2.096107 -5.970241 -4.107560 19.246904 0.320823 0.000000 0.000000 0.000000
0.009072 0.933573 -0.017755 0.395065 13.788676 -2.618854 -1.268508 0.815854 10.574473 -2.349624 0.233603 -4.180780 0.269910 2.637636 3.577278 0.000000 0.000000 0.000000 -0.226281 0.329781 -3.405151 -0.423092 0.248876 14.456553 -3.597623 -9.589931 3.737678 0.000000 0.000000 0.000000 -7.139830 0.043557 8.487132 9.005280 -1.574255 -21.527290 -6.671737 -3.816174 29.503077 5.889206 -0.547937 -32.160699 0.000000 0.000000 0.000000 -53.963867 5.780249 -15.334127 -31.351707 5.108411 -5.325785 4.099574 -19.038160 0.153970 0.000000 0.000000 0.000000 51.286293 0.558769 0.046113 35.017908 3.157726 -5.484049 -4.434373 18.614709 0.242142 0.000000 0.000000 0.000000
0.011226 0.934911 -0.020032 0.279528 13.719301 -3.380016 -0.790346 0.754774 10.534033 -3.285636 0.273771 -2.875303 0.223158 2.638289 3.740281 0.000000 0.000000 0.000000 0.134288 0.575461 -5.882675 -1.117682 0.379990 19.944443 -3.570257 -9.628133 5.672636 0.000000 0.000000 0.000000 -8.159839 0.094027 10.648844 10.523664 -2.140910 -20.759818 -7.186266 -4.357173 28.416990 6.242927 -0.784471 -32.642057 0.000000 0.000000 0.000000 -55.368512 5.496483 -15.036458 -29.704061 4.940617 -5.008867 4.582238 -18.411966 0.074079 0.000000 0.000000 0.000000 51.631079 1.293878 0.015305 33.922625 3.837693 -4.899886 -3.683211 17.525081 0.278309 0.000000 0.000000 0.000000
0.013173 0.936121 -0.018204 -0.412989 13.715927 -4.409011 -0.546043 0.765380 11.451686 -2.542627 0.234150 -2.561566 0.280396 2.745763 3.741376 0.000000 0.000000 0.000000 -0.000010 0.774317 -8.316073 0.943979 -0.548907 26.046170 -4.385214 -11.542609 8.249416 0.000000 0.000000 0.000000 -8.813635 0.123239 12.270696 12.000209 -2.423083 -22.402753 -7.652089 -4.961130 30.239414 5.795672 -0.568483 -33.989823 0.000000 0.000000 0.000000 -56.778710 5.654256 -15.096049 -28.526972 3.484935 -4.675071 4.070200 -17.638399 0.167538 0.000000 0.000000 0.000000 52.151471 1.795014 0.076756 32.788970 4.030519 -4.716552 -3.202897 18.309888 0.345673 0.000000 0.000000 0.000000
0.014622 0.937248 -0.012604 -0.916783 12.480616 -4.755617 -0.305760 0.808898 12.344294 -2.333395 0.232580 -2.884569 0.719851 3.737447 4.189450 0.000000 0.000000 0.000000 -0.395045 0.877715 -9.969978 3.599299 -1.641675 28.822694 -6.120666 -15.193647 10.208060 0.000000 0.000000 0.000000 -8.848298 0.145983 12.971237 12.850031 -2.656590 -22.815203 -7.794076 -5.199871 30.534901 4.200495 0.039646 -33.582670 0.000000 0.000000 0.000000 -57.671968 5.854767 -14.734365 -27.290657 2.070461 -4.367638 3.228815 -18.049872 0.312649 0.000000 0.000000 0.000000 51.315464 2.901925 0.464846 32.324659 4.224901 -4.439828 -3.384497 18.898748 0.311037 0.000000 0.000000 0.000000
0.015535 0.936467 -0.004476 -1.276254 12.185428 -5.062911 -0.176570 0.816959 12.760057 -1.842657 0.195992 -2.165488 1.036620 4.077024 3.732581 0.000000 0.000000 0.000000 -0.612457 0.965543 -11.443239 4.621764 -1.940125 27.835669 -8.635393 -19.458046 15.884508 0.000000 0.000000 0.000000 -9.020567 0.163928 13.879642 13.568755 -2.824775 -23.245382 -8.247166 -5.516988 30.982962 3.259775 0.347892 -32.815143 0.000000 0.000000 0.000000 -57.850518 5.273561 -13.646050 -26.102973 0.128862 -3.957350 2.496565 -19.874663 0.467310 0.000000 0.000000 0.000000 52.460847 3.834177 0.855441 30.613047 4.607954 -4.065939 -4.192106 19.784038 0.180261 0.000000 0.000000 0.000000
0.015589 0.935753 0.004925 -1.280299 12.136815 -4.996515 -0.287248 0.846936 13.040512 -1.402649 0.158890 -1.710325 1.157499 4.203431 3.547557 0.000000 0.000000 0.000000 -0.898828 1.000958 -12.452944 4.116071 -1.330357 22.332033 -13.186108 -24.743673 27.366571 0.000000 0.000000 0.000000 -9.141471 0.178626 14.060278 13.744679 -3.059167 -21.936553 -8.007327 -6.018883 29.660644 2.366838 0.663491 -31.573271 0.000000 0.000000 0.000000 -58.503132 4.344447 -12.474163 -24.316016 -2.313291 -3.303465 2.914025 -21.560224 0.408048 0.000000 0.000000 0.000000 53.026620 4.434682 0.907111 29.567797 5.510674 -3.572550 -5.432142 19.545624 -0.028335 0.000000 0.000000 0.000000
0.015082 0.934998 0.014940 -1.392773 12.324398 -4.945175 0.136108 0.809589 13.685169 -1.537630 0.170938 -1.885024 1.067148 4.020616 3.514828 0.000000 0.000000 0.000000 -1.467106 0.979462 -13.314176 3.624477 -0.810588 15.294243 -16.575428 -27.450457 35.220888 0.000000 0.000000 0.000000 -9.490546 0.212217 14.946249 13.940540 -3.118050 -21.966367 -7.793697 -6.900900 29.593775 1.815902 0.791257 -31.380392 0.000000 0.000000 0.000000 -58.745049 3.632154 -11.079283 -22.623467 -4.906416 -2.822361 3.623024 -24.684613 0.300334 0.000000 0.000000 0.000000 53.941553 5.087447 0.798629 27.609281 6.010680 -3.106542 -5.824196 19.740676 -0.119824 0.000000 0.000000 0.000000
0.014143 0.935386 0.025543 -1.575850 11.798649 -4.208881 -0.116726 0.868307 13.770753 -0.549818 0.115321 -2.319263 1.279116 4.616317 3.981083 0.000000 0.000000 0.000000 -1.423005 1.078649 -14.710209 2.617798 -0.384584 10.063392 -18.167561 -28.375289 39.793892 0.000000 0.000000 0.000000 -8.901410 0.187756 15.669096 13.154364 -2.988691 -21.070245 -7.170835 -7.426996 28.539324 1.889995 0.700760 -32.231124 0.000000 0.000000 0.000000 -58.460989 2.186891 -8.779233 -20.898654 -7.632681 -2.350299 4.056873 -27.542362 0.188421 0.000000 0.000000 0.000000 54.916092 6.191730 1.163997 25.598357 6.255259 -2.671978 -5.716170 19.610603 -0.133686 0.000000 0.000000 0.000000
0.012613 0.935199 0.037775 -1.250500 12.477933 -2.909266 -0.561180 0.892727 13.319269 0.337693 0.068109 -2.716741 0.944828 4.218364 4.370678 0.000000 0.000000 0.000000 -1.666013 1.055374 -15.177437 2.113218 -0.254427 6.597475 -11.482614 -21.977684 28.942245 0.000000 0.000000 0.000000 -8.288137 0.124336 17.040718 13.410241 -3.058429 -20.815395 -8.091502 -8.098075 27.702978 2.276676 0.336057 -30.454770 0.000000 0.000000 0.000000 -58.052627 0.240818 -6.372270 -18.867284 -10.670800 -1.838195 3.783705 -30.711965 0.219151 0.000000 0.000000 0.000000 56.534615 7.808802 2.527005 23.258243 6.975214 -2.254745 -5.486916 19.804730 -0.128155 0.000000 0.000000 0.000000
0.009626 0.935154 0.052180 -1.176569 12.335788 -2.113249 -0.926120 0.947698 13.230830 1.498854 -0.015209 -2.552511 1.011607 4.587054 4.901067 0.000000 0.000000 0.000000 -1.069846 1.162888 -15.489719 1.676215 -0.167555 7.195446 -6.696014 -15.703343 18.403885 0.000000 0.000000 0.000000 -7.804623 0.074221 17.930606 13.872417 -3.546803 -18.386381 -8.415595 -8.415299 25.589954 2.164287 0.476799 -31.596044 0.000000 0.000000 0.000000 -56.648678 -2.393053 -2.983273 -17.344576 -14.062323 -1.409856 5.654999 -32.115974 -0.356956 0.000000 0.000000 0.000000 57.806071 10.032339 4.400160 21.210938 8.132206 -1.757322 -6.264006 19.241005 -0.263019 0.000000 0.000000 0.000000
0.004963 0.934812 0.068635 -1.092051 13.032449 -1.107818 -0.909147 0.887773 12.459195 2.531837 -0.138300 -1.548307 0.777081 4.361997 5.235166 0.000000 0.000000 0.000000 0.026422 1.294917 -15.348232 0.363795 0.081217 6.949686 -5.227849 -13.097001 15.572040 0.000000 0.000000 0.000000 -7.371075 -0.026758 19.478935 13.774493 -3.546434 -17.970796 -8.048624 -9.488245 25.531761 1.053394 0.866588 -30.566215 0.000000 0.000000 0.000000 -56.116339 -5.229713 0.728279 -14.381839 -18.215070 -1.143228 7.431401 -33.203608 -0.970476 0.000000 0.000000 0.000000 58.683813 12.011308 5.982076 19.218606 9.369924 -1.400552 -6.046899 19.236621 -0.241744 0.000000 0.000000 0.000000
-0.001512 0.933889 0.086106 -1.041250 14.155375 0.256266 -0.285420 0.738301 11.711418 3.014017 -0.184159 -1.330940 0.267858 3.707080 5.615640 0.000000 0.000000 0.000000 0.574667 1.402166 -16.233935 0.243560 0.097639 7.904020 -5.191173 -12.853690 13.667743 0.000000 0.000000 0.000000 -7.082372 -0.164285 21.535091 14.450167 -3.800137 -17.547436 -7.778408 -11.069809 24.740605 0.044359 1.282396 -31.395618 0.000000 0.000000 0.000000 -54.930579 -7.971303 4.555285 -12.055052 -22.209198 -1.114251 10.538924 -32.207916 -1.871306 0.000000 0.000000 0.000000 58.268046 14.389871 7.664371 18.912023 9.527263 -1.193216 -6.425619 20.053964 -0.319044 0.000000 0.000000 0.000000
